<svg width="154" height="29" viewBox="0 0 154 29" fill="none" xmlns="http://www.w3.org/2000/svg">
<g clip-path="url(#clip0_30_270)">
<path d="M17.6453 13.1497C17.846 13.1091 17.996 13.0787 18.1055 13.0564C17.4162 17.5757 16.743 23.2994 16.8039 25.1059C16.8343 26.0447 17.5196 26.7259 18.4279 26.7259C18.7077 26.7259 18.9855 26.659 19.2551 26.5272C23.3811 24.5159 25.9317 23.8671 30.1611 22.7946C31.1546 22.5411 31.4141 21.7058 31.333 21.0671C31.2398 20.319 30.6619 19.5627 29.7374 19.5627C29.5955 19.5627 29.4475 19.581 29.2994 19.6195C25.6803 20.5379 23.2534 21.1908 20.2446 22.4702C20.3115 21.7646 20.3966 20.9516 20.5 20.0493C21.086 19.808 21.6273 19.585 22.1383 19.3721C24.9545 18.2022 26.8157 17.4298 30.1591 16.5133C31.1526 16.2416 31.402 15.3921 31.3168 14.7474C31.2175 14.0175 30.6498 13.2774 29.7516 13.2774C29.5995 13.2774 29.4434 13.2977 29.2853 13.3423C25.9013 14.2709 24.0259 15.0495 21.1874 16.2295L20.9724 16.3187C21.2137 14.5527 21.4692 12.8557 21.6963 11.5277C24.0826 10.4855 26.2926 9.94417 29.7739 9.25279C30.5869 9.09059 31.0593 8.458 30.9803 7.63686C30.9032 6.86032 30.2889 6.03512 29.3015 6.03512C29.1839 6.03512 29.0663 6.04728 28.9467 6.06959C26.1973 6.61499 24.0705 7.10565 21.97 7.87408C21.9112 7.78081 21.8483 7.70174 21.7774 7.62875C21.4611 7.30637 21.0069 7.12187 20.5304 7.12187C19.9242 7.12187 19.1984 7.43411 18.9814 8.30999C18.9591 8.3992 18.9186 8.54721 18.8699 8.71752L18.8658 8.73577C18.7807 9.03382 18.6773 9.4008 18.6165 9.67451C18.1927 9.80427 16.6457 10.0699 15.1494 10.3294L15.0744 10.3416C13.3186 10.6437 11.3296 10.9863 10.0603 11.2762C10.0989 10.3071 10.1333 9.45351 10.1698 8.67089C10.1901 8.20051 10.2023 7.7139 10.2124 7.24149L10.2185 6.96778C11.6803 6.75286 13.1341 6.52781 14.8818 6.25612L14.9244 6.25004C16.8322 5.95402 18.9936 5.61948 21.0921 5.31941C21.453 5.26669 21.7713 5.0538 21.9943 4.71521C22.2498 4.3239 22.341 3.8008 22.2254 3.38313C22.0308 2.67755 21.4448 2.25786 20.6541 2.25786C20.5507 2.25786 20.4453 2.26597 20.3378 2.28016C18.3488 2.56401 16.3294 2.87828 14.3769 3.18038L14.2897 3.19457C12.9982 3.39529 11.731 3.59196 10.4354 3.7866C10.5105 3.29189 10.6037 2.85395 10.7233 2.45047C10.9018 1.84019 10.7091 1.40427 10.5145 1.14475C10.2185 0.747357 9.70553 0.5 9.17634 0.5C8.4586 0.5 7.90915 0.913613 7.7064 1.60702C7.48134 2.37545 7.33333 3.21282 7.24007 4.24685C5.44166 4.49421 3.84195 4.6929 2.3497 4.85105C1.43326 4.94634 0.816895 5.57487 0.816895 6.41427C0.816895 7.17864 1.53058 8.0748 2.4166 7.97748C3.84195 7.82744 5.3707 7.64091 7.088 7.40978C7.07989 7.65713 7.07178 7.90449 7.05962 8.14982C7.00487 9.30753 6.95216 10.5403 6.89133 12.144C6.2993 12.3306 5.75998 12.5151 5.24094 12.7077C4.55766 12.9611 4.06903 13.7924 4.15013 14.5608C4.21907 15.1995 4.65093 15.6374 5.30784 15.7307C5.75998 15.7936 6.07222 15.7875 6.45542 15.7064C6.5426 15.6881 6.646 15.6658 6.76766 15.6354L6.72508 16.8742C6.61356 20.0818 6.498 23.3988 6.31349 26.659C6.28916 27.0868 6.41487 27.4619 6.68047 27.7417C6.95621 28.0316 7.3678 28.1979 7.8098 28.1979C8.58228 28.1979 9.39126 27.6809 9.446 26.6935C9.63254 23.4069 9.74608 20.0777 9.85962 16.858L9.93261 14.8041C11.658 14.3601 15.5002 13.5836 17.3513 13.2085L17.6453 13.1497Z" fill="#DA254E"/>
<path d="M89.2349 19.1408C89.1416 18.3926 88.5638 17.6364 87.6392 17.6364C87.4953 17.6364 87.3493 17.6546 87.2013 17.6931C83.3997 18.6582 80.6625 19.3922 77.4712 20.7385C77.5219 20.0451 77.5969 19.23 77.6963 18.3136C77.7206 18.3054 77.7429 18.2973 77.7672 18.2872C78.7445 17.8857 79.5616 17.539 80.1009 17.3079C82.1406 16.4381 83.2639 15.9616 86.2727 15.1344C87.2662 14.8607 87.5176 14.0112 87.4284 13.3664C87.3311 12.6365 86.7613 11.8965 85.8631 11.8965C85.7111 11.8965 85.555 11.9188 85.3968 11.9613C82.3434 12.7987 81.21 13.2833 79.152 14.1592C78.8418 14.293 78.5134 14.4309 78.1585 14.5809C78.4039 12.8109 78.6817 11.0003 78.9473 9.46749C79.9914 9.02955 81.1248 8.72136 82.1953 8.45373C83.6531 8.08878 84.5554 7.93469 85.5975 7.75626L85.6097 7.75424C86.147 7.663 86.8161 7.54946 87.6717 7.3832C88.4847 7.22505 88.9592 6.59247 88.8801 5.77335C88.8051 4.99478 88.1887 4.16553 87.1952 4.16553C87.0797 4.16553 86.96 4.17769 86.8465 4.2C85.999 4.36625 85.1697 4.5021 84.3607 4.63794C82.7428 4.90557 81.0701 5.18334 79.4683 5.67806C79.3974 5.46719 79.2798 5.28066 79.1216 5.11846C78.8053 4.79811 78.3512 4.61361 77.8747 4.61361C77.2685 4.61361 76.5426 4.92585 76.3257 5.79971C76.2446 6.12614 76.1432 6.60463 76.0256 7.22708C75.3362 7.65894 74.7138 8.13541 74.1238 8.68081C73.627 9.137 73.475 9.74323 73.7102 10.3434C73.9616 10.9881 74.6266 11.4585 75.3018 11.4727C74.5962 16.0042 73.923 21.4866 74.1481 23.3418C74.2616 24.2785 74.9348 24.9314 75.7863 24.9314C76.056 24.9314 76.3317 24.8645 76.5994 24.7347C80.6889 22.7396 83.7829 21.955 88.063 20.8682C89.0565 20.6148 89.314 19.7795 89.2349 19.1408Z" fill="#DA254E"/>
<path d="M44.7001 27.0787C44.8826 24.8363 45.1583 22.2228 45.426 19.6965L45.432 19.6418C45.6186 17.8697 45.8132 16.0389 45.9673 14.3865C46.1356 12.5799 46.3221 10.6295 46.5593 8.61007C46.5817 8.42557 46.6019 8.23903 46.6222 8.0525C46.7317 7.08132 46.8432 6.07567 47.0845 5.12071C47.1919 4.69696 47.1068 4.2793 46.8473 3.94476C46.5533 3.56966 46.0606 3.33447 45.5598 3.33447C45.0124 3.33447 44.544 3.6021 44.2743 4.07046C43.6559 5.14504 43.1045 6.25207 42.5692 7.32057C42.2326 7.99168 41.8515 8.75402 41.4683 9.47176C40.7586 10.8018 40.1565 11.8622 39.5705 12.807C39.39 13.097 39.2137 13.3666 39.0332 13.6302C38.7352 12.8111 38.0458 10.818 37.618 9.30551C37.3341 8.30391 37.0097 7.31043 36.6975 6.34736C36.5515 5.89523 36.4055 5.44512 36.2636 5.00109C36.2494 4.87336 36.2312 4.75982 36.2089 4.64222L36.2028 4.62397C36.1785 4.55706 36.0994 4.32593 36.0305 4.19008C35.7993 3.742 35.2985 3.46423 34.7207 3.46423C34.447 3.46423 34.1834 3.52709 33.9543 3.64671C33.786 3.73389 33.638 3.85757 33.5163 4.00558C33.4798 4.04208 33.4373 4.09074 33.3987 4.14345C33.2629 4.32593 33.1777 4.53882 33.1494 4.75373C33.0318 5.18154 33.0054 5.64584 32.9811 6.05743C32.9689 6.25612 32.9567 6.46293 32.9344 6.62919C32.7013 8.36474 32.5533 10.2138 32.458 12.6266C32.3079 16.4444 32.1721 21.6186 32.1052 26.1319C32.0991 26.5191 32.2289 26.8597 32.4823 27.1172C32.758 27.397 33.1696 27.5572 33.6076 27.5572C34.3618 27.5572 35.1323 27.0706 35.1465 26.142C35.1809 23.8185 35.26 21.1381 35.335 18.5449C35.3877 16.7627 35.4283 15.2907 35.4607 13.9242C35.4709 13.5167 35.483 13.101 35.4972 12.6813C36.1663 14.5223 36.9591 15.8767 37.987 16.9351C38.2364 17.1925 38.6358 17.3446 39.0555 17.3446C39.3617 17.3446 39.6496 17.2595 39.8625 17.1054C41.2675 16.0977 42.2245 14.4757 43.074 12.876C43.0315 13.3099 42.9909 13.7437 42.9504 14.1776C42.8003 15.7733 42.6118 17.5616 42.4293 19.291L42.4212 19.3721C42.1434 21.9998 41.8575 24.7187 41.6629 27.0949C41.6325 27.4781 41.7379 27.8147 41.9711 28.0681C42.2225 28.3398 42.6138 28.498 43.0436 28.498C43.81 28.5 44.6251 28.0114 44.7001 27.0787Z" fill="#DA254E"/>
<path d="M49.5421 25.4389C50.1929 23.4033 50.7951 21.3372 51.2472 19.7618C52.8793 18.9285 54.3696 18.1763 55.803 17.4667C56.7803 20.6519 57.8346 23.4945 59.0247 26.1546C59.2518 26.6635 59.8114 26.992 60.4521 26.992C60.7542 26.992 61.0523 26.9149 61.2895 26.777C62.0478 26.333 62.2911 25.4429 61.8957 24.5589C60.7846 22.0732 59.7688 19.2752 58.7936 16.0069C59.6087 15.6156 60.3406 15.2668 61.03 14.9424C61.697 14.6282 62.0133 14.0057 61.8592 13.3123C61.7071 12.6311 61.0583 11.9052 60.1561 11.9052C59.9087 11.9052 59.6614 11.962 59.4201 12.0755C58.9153 12.3127 58.4043 12.554 57.8873 12.8034C57.5021 11.3679 57.1209 9.82701 56.6485 7.82179C56.4924 7.15677 56.32 6.47755 56.1193 5.74764C56.0402 5.46176 55.9713 5.1698 55.9085 4.85351L55.8943 4.77646C56.0889 4.31014 56.0524 3.81137 55.7929 3.36734C55.507 2.87871 54.9028 2.53809 54.3229 2.53809C54.0229 2.53809 53.7431 2.6273 53.514 2.79761C53.0801 3.11796 52.8084 3.52549 52.6807 4.04048L52.6239 4.02426L52.557 4.32838C51.0728 8.35503 49.8867 12.5256 48.7412 16.5584L48.4736 17.4951L48.358 17.5539C48.2647 17.5843 48.1694 17.6248 48.0762 17.6735C47.9687 17.7303 47.8694 17.787 47.7741 17.8418C47.6828 17.8945 47.5896 17.9472 47.4963 17.9979L47.2084 18.1459L47.2206 18.1723C46.7441 18.5433 46.5555 19.0968 46.7035 19.697C46.8151 20.1531 47.1172 20.5668 47.5166 20.8121C47.0969 22.2334 46.736 23.4195 46.3771 24.5427C46.1744 25.1794 46.369 25.6355 46.5657 25.9072C46.8718 26.3269 47.4111 26.5865 47.9748 26.5865C48.727 26.5824 49.313 26.1546 49.5421 25.4389ZM52.4759 15.4574C52.8672 14.0949 53.3781 12.329 53.9458 10.5083L53.9742 10.6299C54.1567 11.4186 54.3635 12.3107 54.5926 13.1907C54.6859 13.5536 54.7832 13.9104 54.8805 14.2632C54.1182 14.6363 53.3315 15.0276 52.4759 15.4574Z" fill="#DA254E"/>
<path d="M71.8429 20.7753C71.5712 20.7753 71.3036 20.8462 71.0441 20.9861C69.6897 21.7221 68.5989 22.1905 67.502 22.5068C66.9261 22.673 66.3523 22.7582 65.7522 22.7663C65.7461 22.7663 65.7279 22.7643 65.6914 22.7561C65.6103 22.302 65.7258 21.6552 65.8191 21.1301C65.9813 20.2217 66.1658 19.1918 66.3179 18.1496C67.1836 12.1705 67.6479 7.37135 67.8264 2.58641C67.8426 2.1363 67.7027 1.74499 67.4209 1.45303C67.1269 1.1489 66.693 0.976562 66.2307 0.976562C65.4197 0.976562 64.5762 1.52196 64.5377 2.56411C64.3086 8.76222 63.7693 14.0682 62.8346 19.2668C62.8042 19.4351 62.7697 19.6074 62.7352 19.796L62.721 19.8629C62.3439 21.8073 61.8735 24.2241 63.7977 25.5115C64.3573 25.8866 65.0345 26.0691 65.8657 26.0691C66.622 26.0691 67.3823 25.917 68.0899 25.7548C69.7302 25.3757 71.2691 24.6093 72.6884 23.8368C73.3554 23.4739 73.6454 22.8271 73.4609 22.1053C73.2926 21.4443 72.6823 20.7753 71.8429 20.7753Z" fill="#DA254E"/>
<path d="M128.338 21.8111C128.297 21.8091 128.255 21.8091 128.214 21.8091C126.878 21.8091 126.156 22.8796 126.132 23.936C126.109 24.9538 126.73 26.077 128.147 26.1399C128.186 26.1419 128.222 26.1419 128.259 26.1419C129.601 26.1419 130.329 25.0714 130.351 24.015C130.371 22.9972 129.751 21.8719 128.338 21.8111Z" fill="#DA254E"/>
<path d="M111.903 9.74747C111.451 6.52169 109.474 3.75616 106.743 2.53154C105.802 2.10779 104.78 1.88477 103.784 1.88477C101.872 1.88477 100.204 2.67955 99.0907 4.11909C98.742 4.5692 98.4804 4.98281 98.2696 5.42075C97.9958 5.98643 98.0263 6.58658 98.3527 7.10765C98.598 7.49896 98.9711 7.78484 99.403 7.91663C99.3239 10.3577 99.3056 12.878 99.3502 15.4124C99.3827 17.1905 99.4496 19.293 99.701 21.4158L99.7436 21.7808C99.4719 21.8112 99.2083 21.8315 98.9549 21.8375C97.8519 21.8639 97.2842 22.7459 97.2943 23.6035C97.3024 24.4044 97.8195 25.2661 98.9305 25.2661L98.9731 25.2641C99.4841 25.2519 100.017 25.2032 100.555 25.1181C100.646 25.2924 100.735 25.4384 100.836 25.5702C101.22 26.0832 101.759 26.3772 102.314 26.3772C102.604 26.3772 102.886 26.2981 103.152 26.142C103.563 25.9027 103.88 25.4445 103.981 24.9478C104.042 24.6517 104.022 24.3598 103.924 24.0982C105.715 23.273 107.351 22.0221 108.661 20.4811C111.248 17.4318 112.43 13.5187 111.903 9.74747ZM102.935 5.40251C103.245 5.29505 103.393 5.2768 103.693 5.2768L103.886 5.27883C104.275 5.28288 104.579 5.36398 105.039 5.5201C106.739 6.09389 108.105 7.92474 108.523 10.1834C108.993 12.736 108.067 15.8807 106.163 18.1941C105.303 19.2403 104.23 20.1202 103.059 20.7427C102.856 18.8287 102.801 16.8641 102.773 15.0231C102.716 11.7547 102.773 8.5188 102.935 5.40251Z" fill="#DA254E"/>
<path d="M123.93 16.4888C123.676 14.1936 123.413 11.8214 122.973 9.51007C122.669 7.91239 122.32 6.21942 121.716 4.6116C121.444 3.88574 121.154 3.19233 120.607 2.69356C120.197 2.3205 119.68 2.11572 119.147 2.11572C118.573 2.11572 118.042 2.35294 117.653 2.78278C117.211 3.27141 117.081 3.89791 117.298 4.50414C117.3 4.51427 117.306 4.52441 117.308 4.53455C117.282 4.58524 117.261 4.6339 117.241 4.68661C116.627 6.33296 116.071 8.0158 115.534 9.64592L115.53 9.65808C114.934 11.4687 114.39 13.0988 113.78 14.7147C112.947 14.9823 112.726 15.7285 112.793 16.2921C112.813 16.4685 112.866 16.649 112.947 16.8172C112.665 17.5046 112.344 18.3014 112.097 19.0901C111.759 20.1586 111.369 21.734 111.888 23.0924C112.176 23.8426 112.807 24.3089 113.533 24.3089C113.683 24.3089 113.833 24.2886 113.983 24.2481C114.435 24.1224 114.857 23.7696 115.082 23.3256C115.284 22.9241 115.315 22.4882 115.167 22.0989C114.901 21.4055 115.234 20.4546 115.526 19.6152L115.595 19.4165C115.824 18.7495 116.099 18.0885 116.365 17.4498L116.436 17.2755C117.608 17.0281 118.835 16.801 120.524 16.5172L120.609 17.2815C120.929 20.1991 121.26 23.2161 121.963 26.1296C122.148 26.8981 122.748 27.3765 123.526 27.3765C124.088 27.3765 124.643 27.1109 124.98 26.6852C125.203 26.4013 125.436 25.9228 125.272 25.2456C124.585 22.3787 124.252 19.3861 123.93 16.4888ZM120.157 13.4556C119.218 13.6117 118.439 13.7496 117.717 13.8814C118.084 12.8291 118.445 11.7403 118.784 10.7144L118.82 10.6009C118.983 10.1123 119.171 9.54049 119.368 8.95251C119.522 9.65606 119.674 10.4387 119.83 11.3369C119.869 11.5579 119.905 11.7789 119.94 11.9978C119.954 12.087 119.968 12.1763 119.98 12.2675L120.023 12.5615C120.033 12.6345 120.041 12.6912 120.045 12.7136C120.086 12.9589 120.122 13.2062 120.157 13.4556Z" fill="#DA254E"/>
<path d="M129.957 11.9027C129.978 11.6067 129.996 11.2985 130.016 10.968L130.018 10.9356C130.059 10.2625 130.089 9.86507 130.109 9.57716L130.116 9.50823C130.156 8.98513 130.18 8.66681 130.219 7.46652C130.223 7.35095 130.227 7.23335 130.233 7.11373L130.239 6.92923C130.288 5.73705 130.337 4.50635 130.026 3.36283C129.773 2.43017 129.002 2.09766 128.366 2.09766C127.8 2.09766 127.253 2.35515 126.936 2.76876C126.727 3.04248 126.515 3.50475 126.693 4.16167C126.742 4.34009 126.768 4.52865 126.786 4.68477L126.792 4.79223C126.805 4.97267 126.809 5.14907 126.813 5.29708C126.837 6.11822 126.811 6.93125 126.78 7.76051C126.738 8.95269 126.705 9.36427 126.661 9.94009V9.95631C126.632 10.3253 126.596 10.7856 126.547 11.6128L126.506 12.2738C126.419 13.693 126.358 14.721 126.375 16.3288C126.375 16.4119 126.375 16.5032 126.375 16.5985V16.6329C126.373 17.9244 126.373 20.0838 128.019 20.3412C128.163 20.3635 128.303 20.3737 128.433 20.3737C128.998 20.3737 129.43 20.173 129.718 19.7776C130.18 19.1369 130.053 18.2063 129.903 17.7562C129.868 17.6487 129.85 17.5169 129.84 17.4318C129.84 17.4196 129.838 17.377 129.832 17.3182L129.83 17.2878C129.824 17.2331 129.82 17.1763 129.817 17.152C129.807 16.9958 129.803 16.8397 129.799 16.6856V16.6491C129.791 16.2842 129.793 15.903 129.797 15.5806C129.82 14.1208 129.878 13.1902 129.957 11.9027Z" fill="#DA254E"/>
<path d="M152.238 2.99561C151.745 2.99561 151.315 3.21863 151.05 3.61197L150.993 3.59778L150.871 3.97287C150.224 5.84021 149.46 7.70958 148.649 9.69046L148.641 9.71074C148.298 10.5481 148.012 11.2476 147.735 11.941C147.005 10.8928 146.251 9.77359 145.433 8.52464C145.15 8.09075 145 7.89003 144.878 7.72986C144.726 7.52508 144.614 7.37707 144.288 6.82153C144.04 6.40386 143.822 6.01255 143.619 5.62327C143.544 5.47931 143.467 5.32319 143.388 5.15086L143.355 5.07381C143.333 5.01907 143.315 4.96027 143.298 4.90147C143.108 4.28713 142.593 3.90393 141.954 3.90393C141.476 3.90393 141.015 4.12696 140.748 4.48786C140.571 4.7271 140.399 5.13058 140.579 5.70842L140.586 5.72262C141.34 7.44803 141.711 8.01776 142.528 9.2586C142.644 9.435 142.763 9.6195 142.897 9.82225L142.905 9.83239C144.17 11.7788 145.354 13.5063 146.522 15.112C145.223 18.7291 144.537 21.6589 144.367 24.3372C144.343 24.7286 144.458 25.0712 144.699 25.3287C144.947 25.5943 145.32 25.7464 145.721 25.7464C146.415 25.7464 147.147 25.28 147.203 24.39C147.493 19.7875 149.45 15.0776 151.342 10.5197L151.356 10.4832C151.986 8.96259 152.585 7.52508 153.124 6.08351C153.213 5.95983 153.286 5.81994 153.335 5.66382C153.385 5.50973 153.428 5.35563 153.475 5.18532C153.513 5.04745 153.554 4.90553 153.598 4.7636C153.779 4.21009 153.612 3.81067 153.44 3.57345C153.179 3.21863 152.716 2.99561 152.238 2.99561Z" fill="#DA254E"/>
<path d="M141.281 20.3452C141.008 20.3452 140.736 20.4162 140.475 20.5601C139.23 21.2373 138.228 21.6671 137.224 21.9551C136.728 22.097 136.235 22.174 135.716 22.1882C135.68 21.807 135.771 21.288 135.846 20.8622L135.854 20.8196C136.004 19.9823 136.174 19.0314 136.312 18.0805C137.087 12.7258 137.547 7.87801 137.719 3.25933C137.733 2.80314 137.591 2.40372 137.304 2.10567C137.005 1.79749 136.568 1.62109 136.099 1.62109C135.28 1.62109 134.429 2.17258 134.39 3.22689C134.218 7.90639 133.699 13.0928 132.805 19.08C132.772 19.3051 132.729 19.5443 132.679 19.8322C132.363 21.5962 131.971 23.792 133.762 24.9902C134.303 25.3532 134.956 25.5296 135.755 25.5296C136.47 25.5296 137.182 25.3876 137.845 25.2356C139.378 24.8808 140.813 24.1671 142.135 23.4493C142.814 23.0803 143.106 22.4194 142.92 21.6854C142.747 21.0183 142.131 20.3452 141.281 20.3452Z" fill="#DA254E"/>
</g>
<defs>
<clipPath id="clip0_30_270">
<rect width="154" height="28" fill="white" transform="translate(0 0.5)"/>
</clipPath>
</defs>
</svg>
